<?xml version="1.0" standalone="no"?>
<!DOCTYPE svg PUBLIC "-//W3C//DTD SVG 20010904//EN"
 "http://www.w3.org/TR/2001/REC-SVG-20010904/DTD/svg10.dtd">
<svg version="1.0" xmlns="http://www.w3.org/2000/svg"
 width="150.000000pt" height="119.000000pt" viewBox="0 0 150.000000 119.000000"
 preserveAspectRatio="xMidYMid meet">
<metadata>
Created by potrace 1.10, written by Peter Selinger 2001-2011
</metadata>
<g transform="translate(0.000000,119.000000) scale(0.050000,-0.050000)"
fill="#a955af" stroke="none">
<path d="M1080 2030 c20 -24 19 -30 -6 -30 -17 0 -34 10 -38 21 -8 24 -76 4
-76 -23 0 -9 12 -12 27 -6 15 6 32 -2 38 -17 7 -16 -4 -26 -27 -26 -21 0 -38
7 -38 15 0 9 -23 16 -51 16 -28 0 -46 -8 -40 -19 17 -27 -30 -49 -92 -45 -63
5 -95 -31 -55 -60 21 -15 19 -17 -10 -8 -45 15 -172 -75 -172 -121 0 -19 -11
-27 -28 -20 -32 12 -52 -26 -52 -97 0 -26 -11 -51 -25 -55 -20 -7 -20 -22 -2
-72 19 -52 19 -63 -5 -63 -15 0 -28 -9 -28 -21 0 -23 82 -59 105 -45 8 4 15
-15 15 -43 0 -28 10 -51 21 -51 12 0 15 10 7 23 -9 14 -5 18 9 9 16 -10 17
-26 3 -52 -23 -44 -1 -65 41 -39 39 25 84 24 69 -1 -7 -12 -21 -15 -31 -9 -36
22 -19 -9 34 -62 51 -51 40 -149 -16 -149 -35 0 -15 -58 24 -70 39 -13 39 -15
-10 -73 -49 -58 -67 -154 -36 -185 8 -9 16 -24 18 -34 1 -10 3 -25 5 -34 4
-33 85 -105 103 -93 11 6 19 2 19 -10 0 -11 10 -21 23 -21 13 0 57 -38 99 -85
67 -74 75 -78 66 -35 -9 39 -7 44 10 20 12 -16 22 -22 22 -12 0 10 18 2 40
-18 22 -20 40 -28 40 -18 0 10 9 5 20 -12 11 -16 20 -20 20 -8 0 14 34 21 85
18 47 -2 72 0 57 6 -47 16 298 144 391 144 67 0 87 8 97 40 13 40 67 52 195
42 38 -3 55 5 55 27 0 18 17 31 40 31 22 0 40 9 40 19 0 11 13 15 30 8 16 -6
24 -21 17 -32 -8 -12 -4 -15 10 -7 13 8 23 5 23 -7 0 -11 18 -21 40 -21 44 0
55 51 15 67 -19 8 -19 10 1 11 15 1 20 12 12 25 -9 15 -5 18 11 8 41 -26 166
109 136 146 -16 20 -17 26 -2 17 48 -29 71 91 33 168 -65 129 -166 227 -166
160 0 -28 -65 -45 -87 -23 -12 12 -39 21 -60 21 -58 0 -19 29 44 33 153 9 213
25 245 65 24 29 38 35 45 17 13 -33 56 25 44 59 -5 14 -1 30 9 36 29 18 87
150 73 164 -7 7 -13 -3 -13 -22 0 -40 -43 -34 -56 7 -6 16 0 21 13 13 38 -23
26 10 -27 80 -34 45 -42 68 -25 74 18 7 15 19 -10 46 -21 22 -35 27 -35 12 0
-40 -31 -27 -34 15 -6 68 -115 161 -144 123 -13 -18 -18 -21 -12 -7 18 37 2
31 -54 -21 -27 -25 -45 -59 -41 -75 7 -25 5 -25 -12 1 -15 21 -12 39 11 65 77
85 -11 26 -123 -82 -27 -26 -58 -41 -70 -34 -12 8 -21 2 -21 -13 -1 -20 -4
-20 -18 2 -14 21 -21 18 -31 -16 -8 -23 -23 -37 -33 -31 -11 7 -34 0 -52 -14
-29 -24 -30 -22 -10 16 19 34 17 45 -5 54 -19 7 -25 1 -18 -18 6 -16 1 -29
-11 -29 -12 0 -22 10 -22 21 0 12 -8 16 -18 10 -10 -6 -23 0 -29 14 -6 15 -10
11 -11 -10 -1 -19 -11 -35 -21 -35 -11 0 -14 14 -8 32 10 24 2 30 -35 24 -27
-4 -46 -19 -42 -34 4 -17 -6 -23 -27 -14 -18 6 -37 12 -42 12 -5 0 -5 7 1 16
5 9 -22 18 -61 21 -47 3 -66 -3 -57 -18 10 -15 -12 -18 -73 -9 -82 13 -130 30
-82 30 13 0 19 26 14 65 -6 47 -3 57 11 35 18 -27 22 -27 39 0 14 21 10 35
-15 48 -52 28 -65 60 -33 78 16 9 37 12 46 6 9 -6 16 3 16 19 0 33 -25 39 -43
9 -20 -32 -68 -23 -105 20 -18 22 -42 40 -52 40 -10 0 -7 -13 7 -30z m80 -158
c0 -47 -95 -112 -165 -112 -15 0 -62 -58 -104 -130 -42 -71 -84 -130 -94 -130
-34 0 -16 96 33 168 78 115 53 129 -57 32 -129 -113 -165 -306 -63 -332 64
-16 125 20 232 138 104 115 169 118 99 5 -51 -82 -57 -170 -9 -130 17 15 53
70 80 123 76 149 133 138 68 -14 -22 -51 -40 -104 -39 -117 0 -36 116 110 143
182 22 59 76 92 76 46 0 -11 13 -15 30 -8 17 6 35 -2 42 -20 10 -27 19 -26 68
10 60 45 120 39 120 -11 0 -41 -41 -63 -60 -33 -18 31 -80 -49 -80 -103 0 -67
73 -37 158 64 88 104 163 131 198 69 15 -29 19 -29 43 0 21 25 101 46 101 26
0 -3 -22 -49 -50 -103 -87 -172 -14 -167 84 6 98 174 211 342 229 342 52 0 31
-70 -54 -182 -77 -99 -85 -116 -41 -88 29 20 58 30 65 24 6 -6 -21 -32 -61
-58 -84 -54 -91 -76 -24 -76 32 0 72 28 117 80 67 78 118 97 171 63 32 -20
-36 -114 -97 -133 -21 -7 -39 -26 -39 -42 0 -51 60 -55 111 -7 36 34 49 38 49
16 0 -103 -292 -167 -341 -75 -25 46 -59 32 -59 -23 0 -22 -14 -39 -31 -39
-24 0 -28 12 -18 45 l14 45 -51 -47 c-62 -57 -117 -50 -136 17 -8 28 -15 39
-16 25 -7 -91 -182 -101 -182 -10 l0 52 -46 -44 c-51 -47 -125 -57 -140 -18
-5 14 -29 -18 -53 -70 -49 -108 -93 -128 -74 -35 7 33 4 60 -6 60 -17 0 -26
-29 -53 -188 -13 -76 -12 -77 39 -68 36 7 53 2 53 -17 0 -17 -23 -27 -59 -27
-51 0 -62 -10 -80 -75 -26 -93 -27 -185 -2 -185 29 0 101 112 101 157 0 55
156 203 213 203 50 0 68 -47 44 -115 -9 -25 -9 -45 -2 -44 30 1 93 109 89 152
-5 68 32 76 88 20 43 -42 47 -57 28 -93 -59 -110 -1 -79 139 75 53 58 141 61
141 5 0 -48 -67 -120 -112 -120 -47 0 -22 -49 29 -56 25 -4 48 6 55 25 13 33
68 44 68 12 0 -31 -103 -101 -149 -101 -53 0 -91 36 -91 87 0 33 -6 31 -42
-15 -82 -104 -150 -50 -111 88 l14 50 -35 -50 c-130 -183 -346 -321 -346 -222
0 10 -31 -13 -68 -50 -105 -105 -138 -79 -129 102 6 111 2 143 -18 135 -14 -5
-25 2 -25 15 0 13 16 28 36 33 26 7 46 49 69 143 18 74 40 157 47 184 14 46
11 45 -40 -15 -63 -73 -112 -85 -112 -25 0 40 0 40 -41 -1 -59 -59 -109 -43
-109 36 l0 63 -50 -46 c-139 -130 -296 -106 -331 50 -30 140 167 358 323 358
36 0 72 10 79 22 53 85 209 123 209 50z m-98 -710 c40 -32 43 -42 20 -70 -36
-43 -55 -40 -68 8 -13 51 -58 51 -103 1 -50 -55 -33 -99 69 -171 150 -105 118
-303 -55 -336 -157 -30 -271 139 -140 209 63 33 116 -27 68 -80 -48 -53 4 -99
81 -71 106 37 99 102 -24 216 -143 132 -136 236 19 304 79 34 79 34 133 -10z
m1246 -59 c32 -36 31 -39 -9 -49 -32 -8 -39 -4 -30 20 10 26 4 26 -41 -4 l-53
-34 37 51 c46 62 52 63 96 16z m-8 -113 c15 -18 20 -55 12 -95 -7 -36 -14 -76
-16 -89 -1 -13 -9 -20 -17 -16 -7 5 -49 -8 -91 -28 -43 -21 -177 -58 -298 -82
-273 -55 -493 -123 -697 -216 -162 -74 -214 -73 -229 3 -14 70 318 198 686
263 436 77 499 92 558 126 74 43 84 111 17 120 -25 4 -40 15 -34 25 18 29 81
22 109 -11z"/>
<path d="M1741 1507 c-42 -53 -56 -147 -23 -147 44 0 138 149 111 175 -37 34
-40 33 -88 -28z"/>
<path d="M1329 1471 c-33 -80 -36 -111 -11 -111 29 0 61 50 74 117 18 87 -26
83 -63 -6z"/>
<path d="M2162 1431 l-49 -26 44 -23 c35 -19 46 -18 55 6 20 53 0 70 -50 43z"/>
<path d="M1450 986 c4 -31 8 -65 9 -75 0 -11 17 -4 36 15 26 26 29 43 13 68
-36 57 -66 53 -58 -8z"/>
<path d="M1361 927 c-1 -57 52 -102 84 -70 17 17 15 23 -8 23 -17 0 -41 20
-53 45 -21 44 -21 44 -23 2z"/>
<path d="M2514 1686 c-43 -11 -35 -53 13 -62 22 -5 33 7 33 35 0 22 -2 40 -5
39 -3 -2 -21 -7 -41 -12z"/>
</g>
</svg>
